HIERARCHY
ROOT pelvis
{
  OFFSET 0 100 0
  CHANNELS 6 Xposition Yposition Zposition Zrotation Xrotation Yrotation
  JOINT pelvis_right_femur
  {
    OFFSET -10.78128 -3.44521 -0.5502486
    CHANNELS 3 Zrotation Xrotation Yrotation
    JOINT right_femur_tibia
    {
      OFFSET -0.8047443 -44.0398 -0.1307829
      CHANNELS 3 Zrotation Xrotation Yrotation
      JOINT right_tibia_foot
      {
        OFFSET 3.006224 -47.83518 -5
        CHANNELS 3 Zrotation Xrotation Yrotation
        End Site
        {
          OFFSET 0 -5 15
        }
      }
    }
  }
  JOINT pelvis_left_femur
  {
    OFFSET 10.78128 -3.44521 -0.5502486
    CHANNELS 3 Zrotation Xrotation Yrotation
    JOINT left_femur_tibia
    {
      OFFSET 0.8047443 -44.0398 -0.1307829
      CHANNELS 3 Zrotation Xrotation Yrotation
      JOINT left_tibia_foot
      {
        OFFSET -4.370144 -48.10324 -4.275266
        CHANNELS 3 Zrotation Xrotation Yrotation
        End Site
        {
          OFFSET 0 -5 15
        }
      }
    }
  }
  JOINT pelvis_spine1
  {
    OFFSET 0 6.468898 -3.129235
    CHANNELS 3 Zrotation Xrotation Yrotation
    JOINT spine1
    {
      OFFSET 0 23.15396 4.99043
      CHANNELS 3 Zrotation Xrotation Yrotation
      JOINT spine2
      {
        OFFSET 0 20.79997 -5.064912
        CHANNELS 3 Zrotation Xrotation Yrotation
        JOINT neck
        {
          OFFSET 0 14.38658 9.616178
          CHANNELS 3 Zrotation Xrotation Yrotation
          End Site
          {
            OFFSET 0 20 0
          }
        }
      }
      JOINT right_manubrium
      {
        OFFSET -5.722621 16.35077 3.967754
        CHANNELS 3 Zrotation Xrotation Yrotation
        JOINT right_clavicle
        {
          OFFSET -13.16364 1.694482 -4.693211
          CHANNELS 3 Zrotation Xrotation Yrotation
          JOINT right_humerus
          {
            OFFSET -28.5034 -0.3100689 -2.792744
            CHANNELS 3 Zrotation Xrotation Yrotation
            JOINT right_radius
            {
              OFFSET -25.15693 0.02248979 -1.271978
              CHANNELS 3 Zrotation Xrotation Yrotation
              End Site
              {
                OFFSET -15 0 0
              }
            }
          }
        }
      }
      JOINT left_manubrium
      {
        OFFSET 5.722621 16.35077 3.967754
        CHANNELS 3 Zrotation Xrotation Yrotation
        JOINT left_clavicle
        {
          OFFSET 13.16364 1.694482 -4.693211
          CHANNELS 3 Zrotation Xrotation Yrotation
          JOINT left_humerus
          {
            OFFSET 29.39168 -1.063119 -2.237045
            CHANNELS 3 Zrotation Xrotation Yrotation
            JOINT left_radius
            {
              OFFSET 24.59957 -0.9528479 0.9047498
              CHANNELS 3 Zrotation Xrotation Yrotation
              End Site
              {
                OFFSET 15 -0 -0
              }
            }
          }
        }
      }
    }
  }
}
MOTION
Frames: 9
Frame Time: 0.0416666666667
-1761.778 91.84756 1192.893 -3.886219 1.167587 -142.8866 1.577238 -26.31607 -7.90741 -0 9.945306 -0 -9.9274 6.095107 4.185306 -7.30866 13.9384 -8.333869 -0 21.68427 -0 7.944457 -16.28916 15.15768 -2.223753 -2.210227 4.15364 0.3782998 13.58252 -8.329856 -0.6346792 20.16582 6.410974 6.927105 -17.65002 2.250785 4.105492 -18.18564 11.67003 88.09169 31.10153 -21.31021 -0 0 13.37191 -19.25075 7.273685 6.296204 10.93566 -27.38786 -6.960396 -83.11742 3.470837 7.492331 0 0 -28.77591 21.60552 6.739379 -18.39062
-1765.775 91.16012 1187.944 -3.879561 1.745596 -143.1277 2.240524 -25.80797 -8.525004 -0 8.053299 -0 -10.32586 7.109149 3.588242 -7.09796 14.32967 -7.369002 -0 27.13269 -0 6.308483 -15.48912 13.45518 -1.584429 -2.695794 4.091806 0.3736468 13.80411 -8.4724 -0.4562877 20.50956 6.154226 6.490708 -17.79555 2.340225 2.808629 -18.24903 11.57559 89.54797 27.9183 -22.71567 -0 0 11.99855 -20.39216 7.766475 6.7437 10.46155 -28.22158 -7.467785 -82.90216 4.931172 7.372803 0 0 -30.62946 20.24211 8.284212 -15.94858
-1769.766 90.80302 1182.665 -3.926866 2.657495 -143.3581 3.178336 -24.31759 -8.640738 -0 7.484564 -0 -10.92058 7.731739 2.697045 -6.627415 14.02111 -6.541886 -0 33.92851 -0 4.558527 -14.07669 12.04054 -0.7979727 -3.185729 4.047709 0.3233633 14.09355 -8.558781 -0.1839361 20.96732 5.855718 5.984228 -17.95977 2.557962 1.49231 -18.39509 11.50243 90.92799 24.55961 -23.7785 -0 0 10.76853 -21.63798 8.505869 7.207607 9.737916 -28.9089 -8.004288 -83.06883 6.730335 7.826338 0 0 -31.32483 18.70157 10.30521 -13.09792
-1773.653 90.88272 1177.178 -4.008931 3.825421 -143.6423 4.385737 -21.90448 -8.115147 -0 7.991538 -0 -11.61702 7.797153 1.545979 -5.882818 12.79185 -5.883373 -0 41.60886 -0 3.034608 -12.12174 11.17559 0.05188467 -3.599081 4.087649 0.2690371 14.48831 -8.585714 0.1753648 21.44389 5.493537 5.412109 -18.20715 2.890633 0.2345304 -18.70299 11.47734 92.14018 21.33406 -24.39235 -0 0 9.917392 -22.74737 9.421732 7.632938 8.793326 -29.36212 -8.537195 -83.70553 8.683964 9.008405 0 0 -30.74949 17.08071 12.46674 -10.04764
-1777.338 91.42514 1171.64 -4.125458 5.142366 -144.0443 5.739636 -18.65859 -6.98958 -0 9.08778 -0 -12.32256 7.235648 0.2416129 -4.882348 10.48995 -5.348325 -0 49.34666 -0 1.982203 -9.806727 10.95931 0.8582099 -3.856819 4.264073 0.2439959 15.0096 -8.53988 0.5912077 21.84581 5.053794 4.785004 -18.56675 3.288644 -0.920865 -19.2583 11.52809 93.13233 18.46761 -24.4896 -0 0 9.652755 -23.56049 10.42676 8.015121 7.675172 -29.53658 -9.064177 -84.84612 10.56849 11.01917 0 0 -28.98989 15.46904 14.44699 -6.989622
-1780.747 92.35476 1166.216 -4.284293 6.479212 -144.6097 7.039208 -14.71524 -5.454981 -0 10.18273 -0 -12.95308 6.064916 -1.058743 -3.677431 7.108001 -4.833939 -0 56.02407 -0 1.509218 -7.38817 11.31496 1.512917 -3.918059 4.609385 0.2639728 15.64928 -8.408893 1.010906 22.09404 4.536533 4.122253 -19.01774 3.669457 -1.957352 -20.13706 11.67232 93.88882 16.06941 -24.0544 -0 0 10.12311 -24.01714 11.42495 8.392637 6.453777 -29.44532 -9.598436 -86.44732 12.16009 13.86197 0 0 -26.3349 13.92653 16.0014 -4.062441
-1783.856 93.50342 1161.039 -4.483116 7.703009 -145.3539 8.08267 -10.28216 -3.771305 -0 10.79162 -0 -13.43465 4.372684 -2.187701 -2.33883 2.840416 -4.229371 -0 60.46481 -0 1.587852 -5.134142 12.04252 1.936345 -3.801567 5.127321 0.325172 16.36399 -8.191784 1.368898 22.13551 3.963982 3.454285 -19.48951 3.941014 -2.858524 -21.37737 11.90858 94.4109 14.15489 -23.12734 -0 0 11.38504 -24.14486 12.33389 8.824179 5.222261 -29.15036 -10.14388 -88.3808 13.27628 17.41108 0 0 -23.20637 12.47813 16.99353 -1.352261
-1786.698 94.65264 1156.183 -4.694195 8.701222 -146.2612 8.738433 -5.642599 -2.183051 -0 10.72176 -0 -13.70533 2.289887 -3.01415 -0.9420581 -1.916044 -3.474329 -0 61.76482 -0 2.083012 -3.259477 12.90198 2.102742 -3.582761 5.784132 0.4111206 17.07857 -7.904543 1.603388 21.9536 3.384255 2.821775 -19.88076 4.037023 -3.579696 -22.94909 12.21431 94.68705 12.70056 -21.79876 -0 0 13.37888 -24.02804 13.10992 9.361044 4.086647 -28.73307 -10.67155 -90.44946 13.81315 21.40827 0 0 -20.03453 11.12966 17.39722 1.075392
-1789.365 95.59515 1151.648 -4.862736 9.402059 -147.2921 8.976829 -1.114695 -0.866825 -0 10.13683 -0 -13.72298 -0.04020039 -3.476795 0.4339633 -6.639667 -2.600094 -0 59.58248 -0 2.792 -1.878654 13.68983 2.048344 -3.366097 6.506303 0.503198 17.69803 -7.576722 1.676154 21.57467 2.864794 2.270461 -20.09302 3.947586 -4.041017 -24.73808 12.55238 94.6712 11.69345 -20.188 -0 0 15.9263 -23.77542 13.76119 10.02724 3.146658 -28.25743 -11.11074 -92.43067 13.77083 25.50149 0 0 -17.12971 9.891514 17.28355 3.143223
